<svg width="180" height="39" viewBox="0 0 180 39" fill="none" xmlns="http://www.w3.org/2000/svg">
<g clip-path="url(#clip0_2037_1385)">
<path d="M34.4169 38.0372C33.9262 38.0372 33.54 37.8923 33.2584 37.6108C32.9768 37.3292 32.832 36.943 32.832 36.4523V19.2439C32.8562 17.3292 33.3147 15.5995 34.2158 14.0709C35.1088 12.5343 36.3236 11.3195 37.8441 10.4265C39.3646 9.53353 41.0863 9.08301 43.001 9.08301C44.964 9.08301 46.7178 9.53353 48.2544 10.4265C49.791 11.3276 51.0058 12.5424 51.8988 14.0951C52.7918 15.6397 53.2423 17.4016 53.2423 19.3646C53.2423 21.3034 52.8159 23.0492 51.9712 24.5939C51.1265 26.1385 49.9599 27.3614 48.4877 28.2624C47.0155 29.1635 45.3421 29.6059 43.4756 29.6059C41.8827 29.6059 40.4266 29.268 39.1313 28.5923C37.828 27.9165 36.7741 27.0235 35.9616 25.9213V36.4603C35.9616 36.9511 35.8167 37.3372 35.5191 37.6188C35.2214 37.8923 34.8594 38.0372 34.4169 38.0372ZM43.001 26.7982C44.3767 26.7982 45.6076 26.4764 46.7017 25.8248C47.7958 25.1731 48.6566 24.2801 49.2842 23.1538C49.9117 22.0275 50.2254 20.7564 50.2254 19.3565C50.2254 17.9326 49.9117 16.6614 49.2842 15.5432C48.6566 14.4249 47.7958 13.5319 46.7017 12.8722C45.6076 12.2125 44.3767 11.8746 43.001 11.8746C41.6735 11.8746 40.4668 12.2045 39.3727 12.8722C38.2785 13.5319 37.4258 14.4249 36.8143 15.5432C36.2029 16.6614 35.8972 17.9326 35.8972 19.3565C35.8972 20.7564 36.2029 22.0195 36.8143 23.1538C37.4258 24.2801 38.2785 25.1731 39.3566 25.8248C40.4346 26.4764 41.6494 26.7982 43.001 26.7982Z" fill="#006989"/>
<path d="M64.8028 29.5981C62.9363 29.5981 61.263 29.1476 59.7907 28.2546C58.3185 27.3616 57.1519 26.1388 56.2911 24.5861C55.4303 23.0414 55.0039 21.2956 55.0039 19.3568C55.0039 17.3938 55.4544 15.6319 56.3474 14.0873C57.2404 12.5426 58.4633 11.3198 60.016 10.4187C61.5606 9.52572 63.3064 9.0752 65.2453 9.0752C67.16 9.0752 68.8897 9.52572 70.4182 10.4187C71.9548 11.3198 73.1696 12.5346 74.0626 14.0873C74.9556 15.6319 75.4222 17.3938 75.4464 19.3568L74.1914 19.9843C74.1914 21.8025 73.7811 23.4356 72.9605 24.8837C72.1399 26.3318 71.0216 27.4823 69.6057 28.327C68.1978 29.1717 66.5968 29.5981 64.8028 29.5981ZM65.2453 26.7984C66.621 26.7984 67.8438 26.4766 68.9138 25.825C69.9838 25.1733 70.8285 24.2803 71.456 23.154C72.0836 22.0277 72.3973 20.7566 72.3973 19.3568C72.3973 17.9328 72.0836 16.6617 71.456 15.5434C70.8285 14.4252 69.9838 13.5322 68.9138 12.8725C67.8438 12.2128 66.621 11.8749 65.2453 11.8749C63.8937 11.8749 62.6708 12.2047 61.5767 12.8725C60.4826 13.5322 59.6218 14.4252 58.9782 15.5434C58.3426 16.6617 58.0208 17.9328 58.0208 19.3568C58.0208 20.7566 58.3426 22.0197 58.9782 23.154C59.6137 24.2803 60.4826 25.1733 61.5767 25.825C62.6789 26.4766 63.9017 26.7984 65.2453 26.7984ZM73.8696 29.4131C73.4271 29.4131 73.049 29.2683 72.7432 28.9867C72.4375 28.7051 72.2847 28.327 72.2847 27.8604V21.7783L72.9846 18.5764L75.4544 19.3487V27.8604C75.4544 28.327 75.3096 28.7051 75.012 28.9867C74.7143 29.2763 74.3362 29.4131 73.8696 29.4131Z" fill="#006989"/>
<path d="M79.7673 29.4128C79.2766 29.4128 78.8984 29.276 78.6249 29.0106C78.3514 28.737 78.2227 28.3589 78.2227 27.8682V10.8126C78.2227 10.3219 78.3594 9.94378 78.6249 9.67025C78.8984 9.39672 79.2766 9.268 79.7673 9.268C80.2581 9.268 80.6362 9.40476 80.8936 9.67025C81.1511 9.94378 81.2798 10.3219 81.2798 10.8126V27.8682C81.2798 28.3589 81.1511 28.737 80.8936 29.0106C80.6281 29.276 80.2581 29.4128 79.7673 29.4128ZM79.5823 16.9269C79.6305 15.4305 80.0167 14.087 80.7408 12.8963C81.4648 11.7056 82.4222 10.7644 83.6128 10.0805C84.8035 9.39672 86.1149 9.05078 87.5388 9.05078C88.7939 9.05078 89.7432 9.23582 90.3948 9.60589C91.0465 9.97596 91.2878 10.4748 91.1108 11.1184C91.0384 11.4643 90.8856 11.7056 90.6523 11.8585C90.419 12.0033 90.1454 12.0757 89.8397 12.0757C89.534 12.0757 89.18 12.0516 88.7858 12.0033C87.3377 11.8344 86.0505 11.9229 84.9403 12.2768C83.822 12.6308 82.929 13.2181 82.2693 14.0226C81.6096 14.8271 81.2717 15.8006 81.2717 16.9349H79.5823V16.9269Z" fill="#006989"/>
<path d="M94.722 5.61567C94.1347 5.61567 93.6279 5.39846 93.2095 4.97207C92.7912 4.54568 92.582 4.0308 92.582 3.44351C92.582 2.83208 92.7992 2.32525 93.2256 1.93104C93.652 1.53683 94.1508 1.34375 94.714 1.34375C95.2771 1.34375 95.7759 1.54488 96.2023 1.93104C96.6287 2.32525 96.8459 2.82404 96.8459 3.44351C96.8459 4.0308 96.6367 4.54568 96.2184 4.97207C95.8161 5.39846 95.3093 5.61567 94.722 5.61567ZM94.7542 29.4129C94.2876 29.4129 93.9095 29.2681 93.6118 28.9865C93.3141 28.705 93.1693 28.3188 93.1693 27.8281V10.845C93.1693 10.3542 93.3141 9.96805 93.6118 9.68647C93.9095 9.40489 94.2876 9.26008 94.7542 9.26008C95.2208 9.26008 95.5989 9.40489 95.8805 9.68647C96.1621 9.96805 96.3069 10.3542 96.3069 10.845V27.8281C96.3069 28.3188 96.1621 28.705 95.8805 28.9865C95.5989 29.2762 95.2208 29.4129 94.7542 29.4129Z" fill="#006989"/>
<path d="M109.935 29.5981C107.924 29.5981 106.138 29.1637 104.593 28.2868C103.048 27.4179 101.833 26.2031 100.949 24.6585C100.064 23.1138 99.6211 21.3439 99.6211 19.3568C99.6211 17.3455 100.039 15.5676 100.876 14.0309C101.713 12.4943 102.855 11.2876 104.319 10.4026C105.784 9.51767 107.473 9.0752 109.388 9.0752C111.254 9.0752 112.879 9.50158 114.271 10.3463C115.655 11.191 116.725 12.3656 117.473 13.862C118.221 15.3584 118.599 17.0639 118.599 18.9867C118.599 19.405 118.463 19.7429 118.197 20.0004C117.924 20.2578 117.586 20.3865 117.167 20.3865H101.769V17.8443H117.352L115.768 18.9465C115.792 17.5949 115.55 16.3801 115.027 15.3021C114.512 14.224 113.772 13.3713 112.815 12.7598C111.858 12.1484 110.715 11.8427 109.388 11.8427C107.988 11.8427 106.765 12.1645 105.719 12.8001C104.673 13.4356 103.877 14.3286 103.322 15.471C102.767 16.6134 102.493 17.9087 102.493 19.3568C102.493 20.8049 102.815 22.0921 103.451 23.2264C104.086 24.3528 104.963 25.2377 106.081 25.8813C107.2 26.5169 108.479 26.8387 109.935 26.8387C110.772 26.8387 111.624 26.6939 112.493 26.3962C113.362 26.0985 114.062 25.7365 114.577 25.294C114.875 25.0768 115.212 24.9561 115.591 24.94C115.969 24.9239 116.282 25.0285 116.532 25.2538C116.902 25.5756 117.087 25.9135 117.103 26.2836C117.111 26.6536 116.95 26.9754 116.604 27.2409C115.792 27.9248 114.762 28.496 113.507 28.9384C112.252 29.3809 111.061 29.5981 109.935 29.5981Z" fill="#006989"/>
<path d="M122.206 29.413C121.715 29.413 121.329 29.2682 121.047 28.9867C120.766 28.7051 120.621 28.327 120.621 27.8603V10.8451C120.621 10.3543 120.766 9.96815 121.047 9.68657C121.329 9.405 121.715 9.26018 122.206 9.26018C122.673 9.26018 123.051 9.405 123.332 9.68657C123.614 9.96815 123.759 10.3543 123.759 10.8451V27.8684C123.759 28.335 123.614 28.7131 123.332 28.9947C123.043 29.2763 122.673 29.413 122.206 29.413ZM137.821 29.413C137.355 29.413 136.977 29.2682 136.679 28.9706C136.381 28.6729 136.237 28.3109 136.237 27.8684V18.4718C136.237 16.9754 135.963 15.7525 135.408 14.8032C134.853 13.862 134.097 13.1459 133.139 12.6632C132.182 12.1805 131.088 11.9472 129.857 11.9472C128.698 11.9472 127.669 12.1725 126.743 12.6311C125.826 13.0896 125.094 13.7011 124.555 14.4734C124.016 15.2457 123.743 16.1387 123.743 17.1443H121.603C121.651 15.5997 122.061 14.2159 122.833 13.0011C123.606 11.7863 124.644 10.8209 125.947 10.113C127.25 9.405 128.698 9.04297 130.291 9.04297C132.013 9.04297 133.549 9.405 134.917 10.1291C136.277 10.8531 137.363 11.9151 138.159 13.3149C138.956 14.7147 139.358 16.4364 139.358 18.4718V27.8684C139.358 28.3109 139.213 28.6809 138.916 28.9706C138.634 29.2682 138.264 29.413 137.821 29.413Z" fill="#006989"/>
<path d="M151.897 29.5981C149.958 29.5981 148.229 29.1476 146.7 28.2546C145.18 27.3616 143.981 26.1388 143.112 24.5861C142.243 23.0414 141.801 21.2956 141.801 19.3568C141.801 17.3938 142.227 15.6319 143.072 14.0873C143.917 12.5426 145.075 11.3198 146.531 10.4187C147.995 9.52572 149.685 9.0752 151.6 9.0752C153.072 9.0752 154.44 9.36482 155.687 9.94406C156.942 10.5233 158.044 11.3841 159.001 12.5426C159.299 12.8885 159.403 13.2345 159.315 13.5965C159.226 13.9505 159.001 14.2643 158.631 14.5378C158.333 14.7309 158.012 14.8033 157.658 14.7389C157.304 14.6746 156.974 14.4895 156.684 14.1677C155.333 12.6472 153.635 11.8829 151.6 11.8829C150.248 11.8829 149.065 12.2047 148.044 12.8403C147.022 13.4758 146.234 14.3608 145.67 15.471C145.107 16.5893 144.826 17.8845 144.826 19.3568C144.826 20.7807 145.123 22.0519 145.727 23.1701C146.33 24.2884 147.167 25.1733 148.229 25.825C149.299 26.4766 150.522 26.7984 151.897 26.7984C152.831 26.7984 153.675 26.6778 154.423 26.4284C155.172 26.187 155.839 25.8009 156.435 25.286C156.781 25.0124 157.119 24.8676 157.465 24.8435C157.81 24.8194 158.124 24.9159 158.422 25.1412C158.744 25.4388 158.929 25.7687 158.977 26.1388C159.025 26.5088 158.905 26.8387 158.607 27.1363C156.805 28.7775 154.568 29.5981 151.897 29.5981Z" fill="#006989"/>
<path d="M171.345 29.5981C169.334 29.5981 167.548 29.1637 166.003 28.2868C164.458 27.4179 163.244 26.2031 162.359 24.6585C161.474 23.1138 161.031 21.3439 161.031 19.3568C161.031 17.3455 161.45 15.5676 162.286 14.0309C163.123 12.4943 164.265 11.2876 165.73 10.4026C167.194 9.51767 168.883 9.0752 170.798 9.0752C172.664 9.0752 174.289 9.50158 175.681 10.3463C177.065 11.191 178.135 12.3656 178.883 13.862C179.631 15.3584 180.01 17.0639 180.01 18.9867C180.01 19.405 179.873 19.7429 179.607 20.0004C179.334 20.2578 178.996 20.3865 178.578 20.3865H163.179V17.8443H178.763L177.178 18.9465C177.202 17.5949 176.96 16.3801 176.438 15.3021C175.923 14.224 175.183 13.3713 174.225 12.7598C173.268 12.1484 172.125 11.8427 170.798 11.8427C169.398 11.8427 168.175 12.1645 167.129 12.8001C166.084 13.4356 165.287 14.3286 164.732 15.471C164.177 16.6134 163.903 17.9087 163.903 19.3568C163.903 20.8049 164.225 22.0921 164.861 23.2264C165.496 24.3528 166.373 25.2377 167.491 25.8813C168.61 26.5169 169.889 26.8387 171.345 26.8387C172.182 26.8387 173.034 26.6939 173.903 26.3962C174.772 26.0985 175.472 25.7365 175.987 25.294C176.285 25.0768 176.623 24.9561 177.001 24.94C177.379 24.9239 177.693 25.0285 177.942 25.2538C178.312 25.5756 178.497 25.9135 178.513 26.2836C178.521 26.6536 178.36 26.9754 178.014 27.2409C177.202 27.9248 176.172 28.496 174.917 28.9384C173.67 29.3809 172.479 29.5981 171.345 29.5981Z" fill="#006989"/>
<path d="M30.3221 5.08434C30.3221 5.22915 30.3141 5.37396 30.306 5.51878C30.2095 6.7014 29.6624 7.83575 28.7775 8.72071L24.1435 13.3627C23.6125 13.8937 22.7437 13.9017 22.2046 13.3627C21.6656 12.8317 21.6656 11.9629 22.2046 11.4238L26.903 6.72553C27.3454 6.28306 27.5868 5.69577 27.5868 5.0763C27.5868 4.78668 27.5305 4.48096 27.4178 4.19939C27.2248 3.73277 26.8949 3.34661 26.4605 3.08112C25.5594 2.52602 24.3366 2.69496 23.5562 3.46729L17.7396 9.29191L15.8008 7.36109L21.6656 1.49625C22.7839 0.377987 24.3366 -0.144941 25.9134 0.0481402C26.7903 0.160771 27.6109 0.498663 28.3028 1.02964C29.582 2.00309 30.3221 3.49947 30.3221 5.08434Z" fill="#006989"/>
<path d="M30.3234 27.627C30.3234 29.228 29.5832 30.7002 28.3041 31.6737C27.6122 32.2127 26.7755 32.5506 25.9066 32.6551C25.6894 32.6793 25.4722 32.6954 25.263 32.6954C23.9115 32.6954 22.6323 32.1724 21.6669 31.207L10.3877 19.9359C9.31774 18.8659 8.79481 17.45 8.91549 15.9295C9.01203 14.7388 9.55105 13.5964 10.4521 12.6954L12.6162 10.5312L14.547 12.4701L12.3185 14.6986C11.8761 15.1411 11.6347 15.7203 11.6347 16.3478C11.6347 16.9753 11.8761 17.5626 12.3185 17.9971L23.5494 29.236C24.4022 30.0807 25.7457 30.1934 26.6629 29.4854C27.3145 28.9866 27.6524 28.2062 27.5639 27.3856C27.5076 26.8305 27.2341 26.3237 26.8399 25.9375L22.1898 21.2875C21.6588 20.7565 21.6508 19.8876 22.1898 19.3486C22.7208 18.8096 23.5897 18.8096 24.1287 19.3486L28.835 24.055C29.7924 25.0043 30.3234 26.2754 30.3234 27.627Z" fill="#006989"/>
<path d="M14.5213 25.35L8.65648 31.2149C7.69107 32.1803 6.40386 32.7032 5.05229 32.7032C4.83508 32.7032 4.61786 32.6871 4.40064 32.663C3.52373 32.5504 2.70314 32.2125 2.01126 31.6815C0.740145 30.7 0 29.2036 0 27.6187C0 27.4739 0.00804505 27.3291 0.0160901 27.1843C0.112631 26.0097 0.659694 24.8673 1.54465 23.9824L6.18665 19.3484C6.71762 18.8175 7.58648 18.8175 8.1255 19.3484C8.66452 19.8794 8.66452 20.7483 8.1255 21.2873L3.41915 25.9936C2.97667 26.4361 2.73532 27.0154 2.73532 27.6348C2.73532 27.9325 2.79163 28.2302 2.90426 28.5198C3.09735 28.9864 3.42719 29.3726 3.85358 29.63C4.75463 30.1851 5.97747 30.0162 6.75784 29.2438L12.5825 23.4273L14.5213 25.35Z" fill="#006989"/>
<path d="M21.4079 16.766C21.3113 17.9567 20.7723 19.1071 19.8713 20.0001L17.7072 22.1642L15.7763 20.2254L18.0048 17.9969C18.4393 17.5625 18.6806 16.9752 18.6806 16.3476C18.6806 15.7201 18.4393 15.1409 18.0048 14.6984L6.76589 3.46752C5.91311 2.61474 4.57763 2.51016 3.6605 3.21812C3.07321 3.66865 2.74336 4.34443 2.74336 5.06849C2.74336 5.68795 2.98471 6.27524 3.42719 6.71772L8.1255 11.4241C8.65648 11.9551 8.66452 12.8239 8.1255 13.3629C7.59453 13.902 6.72566 13.902 6.18665 13.3629L1.48029 8.65658C0.530973 7.69922 0 6.4281 0 5.07653C0 3.47557 0.740145 2.00332 2.01931 1.02987C2.71118 0.490851 3.54787 0.152958 4.41673 0.0403277C5.99356 -0.152754 7.54626 0.370175 8.65648 1.48844L19.9356 12.7676C21.0056 13.8376 21.5286 15.2535 21.4079 16.766Z" fill="#006989"/>
</g>
<defs>
<clipPath id="clip0_2037_1385">
<rect width="180" height="38.037" fill="white"/>
</clipPath>
</defs>
</svg>
